<svg width="64" height="80" viewBox="0 0 64 80" fill="none" xmlns="http://www.w3.org/2000/svg">
<g clip-path="url(#clip0_881_168)">
<path d="M59.46 65.13H4.11C1.84 65.13 0 63.2901 0 61.0201V21.16C0 18.9 1.84 17.05 4.11 17.05H18.9C19.26 17.05 19.55 17.3401 19.55 17.7001V39.8101H45.28V17.71C45.28 17.35 45.57 17.06 45.93 17.06H59.47C61.73 17.06 63.58 18.9 63.58 21.17V61.03C63.57 63.29 61.73 65.13 59.46 65.13ZM4.11 18.3601C2.56 18.3601 1.31 19.62 1.31 21.16V61.0201C1.31 62.57 2.57 63.8301 4.11 63.8301H59.47C61.02 63.8301 62.28 62.57 62.28 61.0201V21.16C62.28 19.61 61.02 18.3601 59.47 18.3601H46.57V40.4701C46.57 40.8301 46.28 41.12 45.92 41.12H18.89C18.53 41.12 18.24 40.8301 18.24 40.4701V18.3601H4.11Z" fill="#3CAB3E"/>
<path d="M41.85 76.3701C41.85 76.3701 41.84 76.3701 41.83 76.3701H21.74C21.54 76.3701 21.35 76.2801 21.23 76.1201C21.11 75.9601 21.06 75.7501 21.12 75.5601L24.07 64.3201C24.15 64.0301 24.4 63.8301 24.7 63.8301H38.87C39.16 63.8301 39.42 64.0301 39.5 64.3201L42.42 75.4101C42.47 75.5001 42.5 75.6101 42.5 75.7201C42.5 76.0801 42.21 76.3701 41.85 76.3701ZM22.58 75.0701H40.98L38.37 65.1301H25.2L22.58 75.0701Z" fill="#3CAB3E"/>
<path d="M50.71 79.1101H12.86C12.5 79.1101 12.21 78.8201 12.21 78.4601V75.7201C12.21 75.3601 12.5 75.0701 12.86 75.0701H50.71C51.07 75.0701 51.36 75.3601 51.36 75.7201V78.4601C51.36 78.8201 51.07 79.1101 50.71 79.1101ZM13.51 77.8101H50.06V76.3701H13.51V77.8101Z" fill="#3CAB3E"/>
<path d="M59.38 54.4101H4.06003C3.70003 54.4101 3.41003 54.1201 3.41003 53.7601V21.2201C3.41003 20.8601 3.70003 20.5701 4.06003 20.5701H18.89C19.25 20.5701 19.54 20.8601 19.54 21.2201V39.8101H45.27V21.2201C45.27 20.8601 45.56 20.5701 45.92 20.5701H59.37C59.73 20.5701 60.02 20.8601 60.02 21.2201V53.7601C60.03 54.1201 59.74 54.4101 59.38 54.4101ZM4.71003 53.1101H58.73V21.8701H46.57V40.4601C46.57 40.8201 46.28 41.1101 45.92 41.1101H18.89C18.53 41.1101 18.24 40.8201 18.24 40.4601V21.8701H4.71003V53.1101Z" fill="#3CAB3E"/>
<path d="M31.79 62.8299C30.71 62.8299 29.83 61.9499 29.83 60.8799C29.83 59.7999 30.71 58.9299 31.79 58.9299C32.87 58.9299 33.74 59.8099 33.74 60.8799C33.74 61.9599 32.86 62.8299 31.79 62.8299ZM31.79 60.2299C31.43 60.2299 31.13 60.5199 31.13 60.8799C31.13 61.2399 31.42 61.5299 31.79 61.5299C32.15 61.5299 32.44 61.2399 32.44 60.8799C32.44 60.5199 32.15 60.2299 31.79 60.2299Z" fill="#3CAB3E"/>
<path d="M49.4 44.6799H15.41C15.05 44.6799 14.76 44.3899 14.76 44.0299V36.8299C14.76 36.4699 15.05 36.1799 15.41 36.1799C15.77 36.1799 16.06 36.4699 16.06 36.8299V43.3799H48.75V36.8299C48.75 36.4699 49.04 36.1799 49.4 36.1799C49.76 36.1799 50.05 36.4699 50.05 36.8299V44.0299C50.05 44.3899 49.76 44.6799 49.4 44.6799Z" fill="#3CAB3E"/>
<path d="M45.92 41.1099H18.89C18.53 41.1099 18.24 40.8199 18.24 40.4599V9.81992C18.24 9.45992 18.53 9.16992 18.89 9.16992H45.92C46.28 9.16992 46.57 9.45992 46.57 9.81992V40.4699C46.57 40.8199 46.28 41.1099 45.92 41.1099ZM19.54 39.8099H45.27V10.4699H19.54V39.8099Z" fill="#3CAB3E"/>
<path d="M38.67 16.18C38.31 16.18 38.02 15.89 38.02 15.53V6.92C38.02 3.82 35.5 1.3 32.4 1.3C29.3 1.3 26.78 3.82 26.78 6.92V15.53C26.78 15.89 26.49 16.18 26.13 16.18C25.77 16.18 25.48 15.89 25.48 15.53V6.92C25.49 3.1 28.59 0 32.4 0C36.21 0 39.32 3.1 39.32 6.92V15.53C39.32 15.88 39.03 16.18 38.67 16.18Z" fill="#3CAB3E"/>
<path d="M38.67 19.5701C37.38 19.5701 36.32 18.5201 36.32 17.2201C36.32 15.9301 37.37 14.8701 38.67 14.8701C39.96 14.8701 41.02 15.9201 41.02 17.2201C41.02 18.5201 39.96 19.5701 38.67 19.5701ZM38.67 16.1801C38.09 16.1801 37.62 16.6501 37.62 17.2301C37.62 17.8101 38.09 18.2801 38.67 18.2801C39.25 18.2801 39.72 17.8101 39.72 17.2301C39.72 16.6401 39.25 16.1801 38.67 16.1801ZM26.14 19.5701C24.85 19.5701 23.79 18.5201 23.79 17.2201C23.79 15.9301 24.84 14.8701 26.14 14.8701C27.44 14.8701 28.49 15.9201 28.49 17.2201C28.49 18.5201 27.43 19.5701 26.14 19.5701ZM26.14 16.1801C25.56 16.1801 25.09 16.6501 25.09 17.2301C25.09 17.8101 25.56 18.2801 26.14 18.2801C26.72 18.2801 27.19 17.8101 27.19 17.2301C27.19 16.6401 26.72 16.1801 26.14 16.1801Z" fill="#3CAB3E"/>
</g>
<defs>
<clipPath id="clip0_881_168">
<rect width="63.57" height="79.11" fill="white"/>
</clipPath>
</defs>
</svg>
