<svg width="75" height="80" viewBox="0 0 75 80" fill="none" xmlns="http://www.w3.org/2000/svg">
<g clip-path="url(#clip0_881_190)">
<path d="M39.43 63.7599C27.06 63.7599 16.99 53.6899 16.99 41.3199C16.99 28.9499 27.06 18.8899 39.43 18.8899C51.8 18.8899 61.86 28.9499 61.86 41.3199C61.86 53.6899 51.8 63.7599 39.43 63.7599ZM39.43 20.1899C27.77 20.1899 18.29 29.6699 18.29 41.3199C18.29 52.9799 27.77 62.4599 39.43 62.4599C51.08 62.4599 60.56 52.9799 60.56 41.3199C60.56 29.6699 51.09 20.1899 39.43 20.1899Z" fill="#3CAB3E"/>
<path d="M23.69 26.9001C23.51 26.9001 23.34 26.8301 23.21 26.6901L10.62 12.7801C10.38 12.5101 10.4 12.1001 10.67 11.8601C10.93 11.6201 11.35 11.6401 11.59 11.9001L24.18 25.8101C24.42 26.0801 24.4 26.4901 24.13 26.7301C24 26.8501 23.85 26.9001 23.69 26.9001Z" fill="#3CAB3E"/>
<path d="M57.5399 31.2001C57.3599 31.2001 57.1699 31.1201 57.0399 30.9701C56.8099 30.7001 56.8399 30.2901 57.1199 30.0501L69.37 19.7101C69.64 19.4801 70.0499 19.5101 70.2899 19.7901C70.5199 20.0601 70.4899 20.4701 70.2099 20.7101L57.9599 31.0501C57.8399 31.1501 57.6899 31.2001 57.5399 31.2001Z" fill="#3CAB3E"/>
<path d="M68.2401 63.8401C68.0801 63.8401 67.9201 63.7801 67.8001 63.6701L57.1701 53.8201C56.9101 53.5801 56.8901 53.1601 57.1301 52.9001C57.3701 52.6401 57.7801 52.6201 58.0501 52.8601L68.6801 62.7101C68.9401 62.9501 68.9601 63.3701 68.7201 63.6301C68.5901 63.7701 68.4101 63.8401 68.2401 63.8401Z" fill="#3CAB3E"/>
<path d="M55.4299 74.3601C55.1899 74.3601 54.9499 74.2201 54.8399 73.9801L48.7499 60.9801C48.5999 60.6501 48.7399 60.2701 49.0599 60.1201C49.3799 59.9701 49.7699 60.1101 49.9199 60.4301L56.0099 73.4301C56.1599 73.7601 56.0199 74.1401 55.6999 74.2901C55.6199 74.3401 55.5199 74.3601 55.4299 74.3601Z" fill="#3CAB3E"/>
<path d="M5.07988 73.34C4.88988 73.34 4.69988 73.26 4.56988 73.1C4.34988 72.82 4.38988 72.41 4.66988 72.19L24.0499 56.65C24.3299 56.43 24.7399 56.47 24.9599 56.75C25.1799 57.03 25.1399 57.44 24.8599 57.66L5.47988 73.19C5.35988 73.29 5.21988 73.34 5.07988 73.34Z" fill="#3CAB3E"/>
<path d="M39.5499 20.19C39.5499 20.19 39.5399 20.19 39.5499 20.19C39.1799 20.19 38.8999 19.89 38.8999 19.53L39.0699 5.18004C39.0699 4.82004 39.3599 4.54004 39.7199 4.54004C39.7199 4.54004 39.7199 4.54004 39.7299 4.54004C40.0899 4.54004 40.3799 4.84004 40.3699 5.20004L40.1999 19.54C40.1899 19.9 39.8999 20.19 39.5499 20.19Z" fill="#3CAB3E"/>
<path d="M39.7799 6.29C38.0499 6.29 36.6399 4.88 36.6399 3.14C36.6399 1.41 38.0499 0 39.7799 0C41.5099 0 42.9299 1.41 42.9299 3.14C42.9299 4.87 41.5199 6.29 39.7799 6.29ZM39.7799 1.3C38.7699 1.3 37.9399 2.12 37.9399 3.14C37.9399 4.16 38.7599 4.99 39.7799 4.99C40.7999 4.99 41.6299 4.16 41.6299 3.14C41.6299 2.13 40.7999 1.3 39.7799 1.3Z" fill="#3CAB3E"/>
<path d="M71.69 21.74C69.96 21.74 68.55 20.33 68.55 18.6C68.55 16.87 69.96 15.46 71.69 15.46C73.43 15.46 74.84 16.87 74.84 18.6C74.84 20.33 73.43 21.74 71.69 21.74ZM71.69 16.76C70.68 16.76 69.85 17.58 69.85 18.6C69.85 19.62 70.67 20.44 71.69 20.44C72.71 20.44 73.54 19.62 73.54 18.6C73.54 17.58 72.71 16.76 71.69 16.76Z" fill="#3CAB3E"/>
<path d="M9.42003 13.6401C7.69003 13.6401 6.28003 12.2301 6.28003 10.5001C6.28003 8.77011 7.69003 7.36011 9.42003 7.36011C11.15 7.36011 12.57 8.77011 12.57 10.5001C12.57 12.2301 11.16 13.6401 9.42003 13.6401ZM9.42003 8.66011C8.41003 8.66011 7.58003 9.48011 7.58003 10.5001C7.58003 11.5101 8.40003 12.3401 9.42003 12.3401C10.44 12.3401 11.27 11.5101 11.27 10.5001C11.27 9.48011 10.44 8.66011 9.42003 8.66011Z" fill="#3CAB3E"/>
<path d="M3.14 77.3901C1.41 77.3901 0 75.9801 0 74.2501C0 72.5201 1.41 71.1101 3.14 71.1101C4.87 71.1101 6.28 72.5201 6.28 74.2501C6.28 75.9801 4.87 77.3901 3.14 77.3901ZM3.14 72.4101C2.13 72.4101 1.3 73.2301 1.3 74.2501C1.3 75.2701 2.12 76.1001 3.14 76.1001C4.15 76.1001 4.98 75.2701 4.98 74.2501C4.98 73.2301 4.15 72.4101 3.14 72.4101Z" fill="#3CAB3E"/>
<path d="M56.5001 79.1101C54.7701 79.1101 53.3501 77.7001 53.3501 75.9701C53.3501 74.2401 54.7601 72.8301 56.5001 72.8301C58.2301 72.8301 59.6401 74.2401 59.6401 75.9701C59.6301 77.7001 58.2301 79.1101 56.5001 79.1101ZM56.5001 74.1301C55.4801 74.1301 54.6501 74.9501 54.6501 75.9701C54.6501 76.9801 55.4801 77.8101 56.5001 77.8101C57.5101 77.8101 58.3301 76.9901 58.3301 75.9701C58.3301 74.9601 57.5101 74.1301 56.5001 74.1301Z" fill="#3CAB3E"/>
<path d="M70.0599 68.02C68.3299 68.02 66.9199 66.61 66.9199 64.88C66.9199 63.14 68.3299 61.73 70.0599 61.73C71.7899 61.73 73.2099 63.14 73.2099 64.88C73.2099 66.61 71.7999 68.02 70.0599 68.02ZM70.0599 63.04C69.0499 63.04 68.2199 63.87 68.2199 64.89C68.2199 65.9 69.0399 66.72 70.0599 66.72C71.0799 66.72 71.9099 65.9 71.9099 64.89C71.9099 63.86 71.0799 63.04 70.0599 63.04Z" fill="#3CAB3E"/>
<path d="M39.4301 56.69C30.9501 56.69 24.0601 49.79 24.0601 41.32C24.0601 32.85 30.9601 25.96 39.4301 25.96C47.9001 25.96 54.7901 32.85 54.7901 41.32C54.8001 49.79 47.9101 56.69 39.4301 56.69ZM39.4301 27.25C31.6701 27.25 25.3601 33.56 25.3601 41.31C25.3601 49.07 31.6701 55.38 39.4301 55.38C47.1801 55.38 53.4901 49.07 53.4901 41.31C53.5001 33.56 47.1901 27.25 39.4301 27.25Z" fill="#3CAB3E"/>
</g>
<defs>
<clipPath id="clip0_881_190">
<rect width="74.84" height="79.11" fill="white"/>
</clipPath>
</defs>
</svg>
