<svg width="80" height="76" viewBox="0 0 80 76" fill="none" xmlns="http://www.w3.org/2000/svg">
<g clip-path="url(#clip0_881_68)">
<path d="M56.96 35.97V25.27H57.13L71.16 30.32V30.61L56.96 35.97Z" stroke="#3CAB3E" stroke-width="1.3" stroke-miterlimit="10" stroke-linecap="round" stroke-linejoin="round"/>
<path d="M22.2 24.78H22.26V35.98L8.21005 30.61L8.05005 30.28L22.2 24.78Z" stroke="#3CAB3E" stroke-width="1.3" stroke-miterlimit="10" stroke-linecap="round" stroke-linejoin="round"/>
<path d="M39.69 42.65L22.26 35.98V24.78V6.26001L39.61 11.74L56.96 6.26001V25.27V35.97L39.69 42.48L39.75 42.61L39.69 42.65Z" stroke="#3CAB3E" stroke-width="1.3" stroke-miterlimit="10" stroke-linecap="round" stroke-linejoin="round"/>
<path d="M71.16 49.2901V62.09L40.05 74.4101L39.75 49.05H43.39L48.64 58.35L71.16 49.2901Z" stroke="#3CAB3E" stroke-width="1.3" stroke-miterlimit="10" stroke-linecap="round" stroke-linejoin="round"/>
<path d="M71.16 48.96V49.29L48.64 58.35L43.39 49.05L71.16 48.96Z" stroke="#3CAB3E" stroke-width="1.3" stroke-miterlimit="10" stroke-linecap="round" stroke-linejoin="round"/>
<path d="M22.26 6.26002L22.04 6.19002L39.61 0.650024L57.17 6.19002L56.96 6.26002L39.61 11.74L22.26 6.26002Z" stroke="#3CAB3E" stroke-width="1.3" stroke-miterlimit="10" stroke-linecap="round" stroke-linejoin="round"/>
<path d="M71.1601 48.96L43.3901 49.05L39.7501 42.61L39.6901 42.48L56.9601 35.97L71.1601 30.61L78.4601 46.36L71.1601 49.29V48.96Z" stroke="#3CAB3E" stroke-width="1.3" stroke-miterlimit="10" stroke-linecap="round" stroke-linejoin="round"/>
<path d="M39.7501 49.05L40.0501 74.4101L8.21008 62.09V49.42L30.2801 58.35L35.8401 49.0601L39.7501 49.05Z" stroke="#3CAB3E" stroke-width="1.3" stroke-miterlimit="10" stroke-linecap="round" stroke-linejoin="round"/>
<path d="M35.8401 49.0601L30.2801 58.3501L8.21008 49.4201V49.1501L35.8401 49.0601Z" stroke="#3CAB3E" stroke-width="1.3" stroke-miterlimit="10" stroke-linecap="round" stroke-linejoin="round"/>
<path d="M0.650024 46.36L8.21002 30.61L22.26 35.98L39.69 42.65L35.84 49.06L8.21002 49.15V49.42L0.650024 46.36Z" stroke="#3CAB3E" stroke-width="1.3" stroke-miterlimit="10" stroke-linecap="round" stroke-linejoin="round"/>
<path d="M8.21008 49.42V62.09L40.0501 74.41L71.1601 62.09V49.29" stroke="#3CAB3E" stroke-width="1.3" stroke-miterlimit="10" stroke-linecap="round" stroke-linejoin="round"/>
<path d="M8.21002 30.61L22.26 35.98L39.69 42.65L35.84 49.06L30.28 58.35L8.21002 49.42L0.650024 46.36L8.21002 30.61Z" stroke="#3CAB3E" stroke-width="1.3" stroke-miterlimit="10" stroke-linecap="round" stroke-linejoin="round"/>
<path d="M71.1601 30.61L56.9601 35.97L39.6901 42.48L39.7501 42.61L43.3901 49.05L48.6401 58.35L71.1601 49.29L78.4601 46.36L71.1601 30.61Z" stroke="#3CAB3E" stroke-width="1.3" stroke-miterlimit="10" stroke-linecap="round" stroke-linejoin="round"/>
<path d="M8.05005 30.28L22.2 24.78" stroke="#3CAB3E" stroke-width="1.3" stroke-miterlimit="10" stroke-linecap="round" stroke-linejoin="round"/>
<path d="M57.13 25.27L71.16 30.32" stroke="#3CAB3E" stroke-width="1.3" stroke-miterlimit="10" stroke-linecap="round" stroke-linejoin="round"/>
<path d="M39.6901 43.09L39.7501 49.05L40.0501 74.41" stroke="#3CAB3E" stroke-width="1.3" stroke-miterlimit="10" stroke-linecap="round" stroke-linejoin="round"/>
<path d="M56.96 6.26001V25.27V35.97V35.98" stroke="#3CAB3E" stroke-width="1.3" stroke-miterlimit="10" stroke-linecap="round" stroke-linejoin="round"/>
<path d="M22.26 35.98V24.78V6.26001" stroke="#3CAB3E" stroke-width="1.3" stroke-miterlimit="10" stroke-linecap="round" stroke-linejoin="round"/>
<path d="M22.26 6.26002L22.04 6.19002L39.61 0.650024L57.17 6.19002L56.96 6.26002L39.61 11.74L22.26 6.26002Z" stroke="#3CAB3E" stroke-width="1.3" stroke-miterlimit="2.6131" stroke-linecap="round" stroke-linejoin="round"/>
<path d="M28.67 17.87V31.41" stroke="#3CAB3E" stroke-width="1.3" stroke-miterlimit="2.6131" stroke-linecap="round" stroke-linejoin="round"/>
<path d="M50.42 12.74V26.28" stroke="#3CAB3E" stroke-width="1.3" stroke-miterlimit="2.6131" stroke-linecap="round" stroke-linejoin="round"/>
</g>
<defs>
<clipPath id="clip0_881_68">
<rect width="79.11" height="75.06" fill="white"/>
</clipPath>
</defs>
</svg>
