<svg width="201" height="105" viewBox="0 0 201 105" fill="none" xmlns="http://www.w3.org/2000/svg">
<path d="M7.20061 0.426535C2.65959 1.89423 0.905481 7.49816 3.74157 11.4176C5.676 14.0861 9.33177 15.0201 12.2826 13.6191L13.3646 13.1021L14.0695 13.7359C14.4466 14.0694 16.7744 16.3043 19.2171 18.6893L23.6597 23.0257V28.4629V33.9167L22.4302 34.2002C18.5285 35.0842 15.299 38.2698 14.3154 42.2225C12.7908 48.2935 16.6597 54.6146 22.6433 55.7987L23.6597 56.0155V60.8189V65.6223L22.7745 65.8725C20.8073 66.4562 19.004 68.2074 18.2499 70.2755C16.9876 73.6946 18.5449 77.5473 21.84 79.1985C22.8728 79.6988 23.0204 79.7322 24.8073 79.7322C26.5286 79.7322 26.7745 79.6988 27.6598 79.2652C33.6926 76.3965 33.0204 67.557 26.6434 65.8224L25.9548 65.6223L25.9876 60.8523L26.0368 56.0823L27.4958 55.682C32.4467 54.3477 35.6926 50.0947 35.6762 44.9578C35.6598 40.2044 32.8729 36.1683 28.4466 34.5505C27.8401 34.3337 27.0368 34.1002 26.6598 34.0334L25.9548 33.9167V27.9625V21.9917L20.9876 17.1383C18.2663 14.4864 15.84 12.0847 15.5777 11.8179L15.1187 11.3175L15.6597 10.1667C16.1679 9.08261 16.2007 8.91582 16.2007 7.18127C16.2007 5.44672 16.1679 5.27994 15.6761 4.26256C15.3974 3.66214 14.8892 2.86158 14.5777 2.49465C12.8728 0.459891 9.758 -0.407384 7.20061 0.426535ZM11.4137 2.4613C12.4138 2.89493 13.6925 4.31259 14.0531 5.36333C14.3974 6.38071 14.381 7.98184 14.0367 9.03257C13.6597 10.15 12.2334 11.601 11.1351 11.9846C10.1187 12.3349 8.52848 12.3516 7.54487 12.0013C6.51208 11.6511 5.24977 10.4669 4.70879 9.33278C4.34813 8.58226 4.26616 8.1653 4.26616 7.19795C4.26616 3.39528 7.92192 0.960242 11.4137 2.4613ZM27.2663 36.6186C31.3483 37.8194 33.9877 42.3393 33.1024 46.6256C31.9221 52.363 25.9712 55.2817 20.7253 52.6965C19.5122 52.0961 17.6433 50.1781 17.0531 48.9272C15.8236 46.3087 15.8072 43.5735 17.0531 40.9716C17.2826 40.488 17.9384 39.5707 18.5122 38.9536C20.8236 36.4685 23.9384 35.6512 27.2663 36.6186ZM27.0696 68.1574C28.9548 69.1081 29.9712 70.8926 29.8565 73.0608C29.7253 75.8294 27.7745 77.8142 25.0532 77.9476C22.922 78.0643 21.1679 77.0303 20.2335 75.1123C19.7909 74.245 19.7253 73.9114 19.7253 72.8273C19.7253 70.6925 20.7581 68.9913 22.5942 68.1074C23.3974 67.7238 23.7909 67.6404 24.8237 67.6404C25.8893 67.6404 26.2171 67.7238 27.0696 68.1574Z" fill="#3CAB3E"/>
<path d="M22.8069 39.0037C20.2823 39.9711 18.7577 42.0058 18.6102 44.6577C18.3643 49.0941 22.4463 52.313 26.6266 50.9621C28.0037 50.5118 29.1021 49.6779 29.889 48.4437C31.8726 45.3248 30.807 41.2219 27.5611 39.4373C26.6266 38.937 26.3807 38.8703 24.9709 38.8369C23.9381 38.8036 23.2168 38.8536 22.8069 39.0037Z" fill="#3CAB3E"/>
<path d="M7.34794 26.7952C6.02006 27.2288 4.92169 28.0961 4.15119 29.2803C2.6102 31.7153 2.90528 34.7841 4.87251 36.9189C5.57743 37.6862 7.11843 38.6201 7.65941 38.6201C7.88892 38.6201 7.92171 39.6375 7.92171 48.2769V57.9337L7.20039 58.0338C6.18399 58.2005 4.3807 59.1345 3.42988 59.9851C0.397071 62.7204 -0.242278 67.5237 1.95446 70.9428C3.13479 72.7608 4.79054 73.9783 6.9217 74.5787L7.97089 74.8789L7.85614 78.1479L7.75777 81.4002L13.6595 87.1375C16.9054 90.2897 19.5611 92.9416 19.5611 93.025C19.5611 93.1084 19.4464 93.6087 19.2988 94.1257C18.5447 96.7442 19.7742 99.6796 22.1677 100.981C25.6923 102.882 29.8235 101.047 30.8071 97.1278C31.3153 95.1098 30.7743 93.1084 29.2989 91.4906C28.2661 90.3564 27.0694 89.7894 25.5448 89.6893C24.0202 89.5892 22.889 89.8728 21.8234 90.6066L20.9874 91.1737L20.2333 90.4565C19.8234 90.0729 17.3972 87.6379 14.8562 85.0694L10.2168 80.3994V77.6142V74.8289L11.1676 74.562C14.9054 73.4612 17.3152 70.2423 17.3152 66.3896C17.2988 62.4368 14.9709 59.2846 11.2004 58.1338L10.2988 57.867L10.2496 48.3269L10.2168 38.7869L10.6594 38.6869C11.5283 38.4867 13.0037 37.5694 13.6758 36.8356C16.6923 33.4999 15.2988 28.1461 11.0529 26.7785C9.77418 26.3615 8.62663 26.3615 7.34794 26.7952ZM11.1512 28.8466C14.2168 30.4477 14.2168 34.9676 11.1676 36.5187C10.184 37.019 8.61024 37.1024 7.67581 36.7188C6.80695 36.3352 5.67579 35.1844 5.34792 34.3171C5.00366 33.3831 4.98726 31.9321 5.33153 31.0982C5.70858 30.1976 6.59383 29.2636 7.51187 28.8299C8.2004 28.4964 8.52827 28.4463 9.4791 28.4964C10.1184 28.5297 10.8725 28.6798 11.1512 28.8466ZM11.0857 61.6363C14.3316 63.2041 15.0037 67.7572 12.348 70.209C11.2824 71.1763 10.3643 71.5432 8.90532 71.5266C6.80695 71.5099 5.18399 70.4758 4.28234 68.5578C2.98725 65.7725 4.3807 62.4702 7.26597 61.4028C8.28237 61.0192 10.0529 61.1359 11.0857 61.6363Z" fill="#3CAB3E"/>
<path d="M137.218 36.7354C137.185 36.8188 133.956 48.4103 130.037 62.5035C126.136 76.6134 122.89 88.1548 122.841 88.1548C122.792 88.1548 119.726 76.6134 116.021 62.5035L109.283 36.8689L99.5946 36.8188C94.2503 36.8022 89.8896 36.8188 89.8896 36.8689C89.8896 36.9523 106.791 101.864 107.382 104.033L107.644 105H116.365H125.07L134.792 71.0095C140.136 52.3297 144.529 36.9523 144.529 36.8689C144.562 36.6687 137.333 36.5353 137.218 36.7354Z" fill="#3CAB3E"/>
<path d="M147.431 70.8093V105H156.939H166.447V91.0235V77.0471L169.103 73.8448C170.546 72.0769 171.791 70.6426 171.841 70.6426C171.906 70.6426 176.169 78.1311 181.333 87.2709C186.496 96.4273 190.857 104.166 191.038 104.45L191.365 105H196.054C200.152 105 200.726 104.967 200.644 104.75C200.595 104.616 195.267 95.51 188.808 84.5356C182.349 73.5446 177.037 64.5049 177.005 64.4549C176.972 64.3882 182.07 58.1505 188.333 50.5785C194.595 43.0065 199.726 36.7688 199.726 36.7188C199.726 36.652 197.562 36.6187 194.906 36.6187H190.103L178.316 51.329L166.529 66.0393L166.48 51.329L166.447 36.6187H156.939H147.431V70.8093Z" fill="#3CAB3E"/>
<path d="M38.8239 36.9855C38.7747 37.1022 38.7583 52.4297 38.7747 71.0594L38.8239 104.916L50.0863 104.967C56.283 104.983 65.2503 104.933 70.0044 104.85C77.9225 104.716 78.8078 104.666 80.2996 104.333C86.316 103.015 90.1849 100.163 92.3652 95.4098C94.6931 90.373 94.6439 82.9678 92.2669 78.1477C91.2013 75.9962 89.1193 73.6446 87.0373 72.2769C84.9717 70.9093 81.7586 69.6251 79.234 69.1414C78.152 68.9246 77.5618 68.641 78.2012 68.641C78.9553 68.641 81.5455 67.7404 83.2504 66.8898C87.7914 64.6216 90.1685 61.1525 90.9718 55.5819C91.6275 51.0287 90.7423 47.1093 88.316 43.8403C85.3816 39.9209 80.1356 37.5692 72.9225 36.9521C69.8569 36.702 38.9222 36.7353 38.8239 36.9855ZM66.2011 42.8563C68.8569 43.5735 70.7257 45.7083 71.7093 49.1607C72.152 50.7285 72.3159 55.1649 72.0208 57.5833C71.4798 61.9864 69.8897 64.9718 67.4798 66.1059C66.611 66.5062 66.2831 66.5562 63.6601 66.6563C62.0863 66.723 60.1519 66.7897 59.365 66.7897L57.9224 66.8064V54.798V42.8063L58.8732 42.7395C61.4306 42.5894 65.4306 42.6395 66.2011 42.8563ZM68.0208 72.4937C70.4798 73.4277 72.2995 75.5125 73.3487 78.598C73.8733 80.1491 74.152 82.384 74.152 84.9858C74.152 93.1082 71.8897 97.9116 67.5126 99.0791C66.7585 99.2792 65.5782 99.3292 62.2339 99.3292H57.9224V85.7364V72.1435L60.9224 72.0935C65.5782 71.9934 66.906 72.0768 68.0208 72.4937Z" fill="#3CAB3E"/>
</svg>
