<svg width="17" height="14" viewBox="0 0 17 14" fill="none" xmlns="http://www.w3.org/2000/svg">
<path d="M15.4061 0.27832H1.59364C0.714785 0.27832 -0.00012207 0.993227 -0.00012207 1.87208V11.4346C-0.00012207 12.3134 0.714785 13.0283 1.59364 13.0283H15.4061C16.285 13.0283 16.9999 12.3134 16.9999 11.4346V1.87208C16.9999 0.993227 16.285 0.27832 15.4061 0.27832ZM15.4061 1.34082C15.4783 1.34082 15.547 1.35579 15.6097 1.38194L8.49988 7.54411L1.38998 1.38194C1.45276 1.35583 1.52142 1.34082 1.5936 1.34082H15.4061ZM15.4061 11.9658H1.59364C1.30052 11.9658 1.06237 11.7277 1.06237 11.4345V2.50448L8.15176 8.64862C8.2519 8.73524 8.37589 8.77832 8.49988 8.77832C8.62387 8.77832 8.74786 8.73528 8.848 8.64862L15.9374 2.50448V11.4346C15.9373 11.7277 15.6992 11.9658 15.4061 11.9658Z" fill="#48A216"/>
</svg>
