<svg width="67" height="80" viewBox="0 0 67 80" fill="none" xmlns="http://www.w3.org/2000/svg">
<g clip-path="url(#clip0_881_95)">
<path d="M10.85 12.58C7.38005 12.58 4.55005 9.75999 4.55005 6.28999C4.55005 2.81999 7.38005 -0.0100098 10.85 -0.0100098C14.32 -0.0100098 17.15 2.80999 17.15 6.28999C17.15 9.75999 14.33 12.58 10.85 12.58ZM10.85 1.29999C8.10005 1.29999 5.85005 3.53999 5.85005 6.29999C5.85005 9.04999 8.09005 11.29 10.85 11.29C13.61 11.29 15.85 9.04999 15.85 6.29999C15.85 3.53999 13.61 1.29999 10.85 1.29999Z" fill="#3CAB3E"/>
<path d="M19.49 31.9999C18.09 31.9999 16.96 30.8699 16.96 29.4799V27.1999C16.96 26.8399 17.25 26.5499 17.61 26.5499C17.97 26.5499 18.26 26.8399 18.26 27.1999V29.4699C18.26 30.1299 18.82 30.6899 19.49 30.6899C20.22 30.6899 20.66 30.0499 20.72 29.4099V20.5799C20.72 17.6199 18.31 15.2199 15.35 15.2199H6.67C3.71 15.2199 1.3 17.6299 1.3 20.5799V29.4699C1.3 30.1399 1.85 30.6899 2.53 30.6899C3.2 30.6899 3.76 30.1299 3.76 29.4699V27.1999C3.76 26.8399 4.05 26.5499 4.41 26.5499C4.77 26.5499 5.06 26.8399 5.06 27.1999V29.4699C5.06 30.8599 3.92 31.9899 2.53 31.9899C1.14 31.9999 0 30.8699 0 29.4799V20.5899C0 16.9199 2.99 13.9299 6.67 13.9299H15.35C19.03 13.9299 22.02 16.9199 22.02 20.5899V29.4799C21.88 30.9599 20.82 31.9999 19.49 31.9999Z" fill="#3CAB3E"/>
<path d="M17.6 35.54H4.41001C4.05001 35.54 3.76001 35.25 3.76001 34.89V24.79C3.76001 24.43 4.05001 24.14 4.41001 24.14C4.77001 24.14 5.06001 24.43 5.06001 24.79V34.24H16.95V24.79C16.95 24.43 17.24 24.14 17.6 24.14C17.96 24.14 18.25 24.43 18.25 24.79V34.89C18.25 35.25 17.96 35.54 17.6 35.54Z" fill="#3CAB3E"/>
<path d="M11.01 26.49C10.65 26.49 10.36 26.2 10.36 25.84V18.09H8.86997C8.50997 18.09 8.21997 17.8 8.21997 17.44C8.21997 17.08 8.50997 16.79 8.86997 16.79H13.15C13.51 16.79 13.8 17.08 13.8 17.44C13.8 17.8 13.51 18.09 13.15 18.09H11.66V25.84C11.66 26.2 11.37 26.49 11.01 26.49Z" fill="#3CAB3E"/>
<path d="M47.7199 56.1499C44.2499 56.1499 41.4299 53.3299 41.4299 49.8599C41.4299 46.3899 44.2499 43.5599 47.7199 43.5599C51.1899 43.5599 54.0199 46.3799 54.0199 49.8599C54.0199 53.3299 51.1899 56.1499 47.7199 56.1499ZM47.7199 44.8699C44.9699 44.8699 42.7299 47.1099 42.7299 49.8699C42.7299 52.6199 44.9699 54.8599 47.7199 54.8599C50.4799 54.8599 52.7199 52.6199 52.7199 49.8699C52.7199 47.1099 50.4799 44.8699 47.7199 44.8699Z" fill="#3CAB3E"/>
<path d="M43.93 50.2099C43.23 50.2099 42.55 50.0999 41.9 49.8799C41.56 49.7599 41.38 49.3899 41.49 49.0499C41.61 48.7099 41.98 48.5299 42.32 48.6399C42.83 48.8199 43.38 48.8999 43.93 48.8999C45.53 48.8999 46.98 48.1699 47.93 46.8999C48.03 46.7599 48.19 46.6699 48.37 46.6399C48.54 46.6199 48.72 46.6699 48.86 46.7799C50.03 47.7199 51.61 48.0799 53.06 47.7799C53.41 47.7099 53.76 47.9299 53.83 48.2799C53.9 48.6299 53.68 48.9799 53.33 49.0499C51.71 49.3899 49.97 49.0699 48.57 48.1699C47.38 49.4599 45.69 50.2099 43.93 50.2099Z" fill="#3CAB3E"/>
<path d="M56.3401 75.56C54.9501 75.56 53.8201 74.42 53.8201 73.03V70.77C53.8201 70.41 54.1101 70.12 54.4701 70.12C54.8301 70.12 55.1201 70.41 55.1201 70.77V73.03C55.1201 73.71 55.6701 74.26 56.3401 74.26C57.1001 74.26 57.5201 73.6 57.5801 72.98V64.15C57.5801 61.19 55.1701 58.79 52.2201 58.79H43.5301C40.5701 58.79 38.1701 61.2 38.1701 64.15V73.04C38.1701 73.71 38.7201 74.25 39.3901 74.25C40.0701 74.25 40.6201 73.7 40.6201 73.02V70.76C40.6201 70.4 40.9101 70.11 41.2701 70.11C41.6301 70.11 41.9201 70.4 41.9201 70.76V73.02C41.9201 74.42 40.7801 75.55 39.3901 75.55C38.0001 75.55 36.8701 74.42 36.8701 73.03V64.14C36.8701 60.47 39.8601 57.48 43.5301 57.48H52.2201C55.8901 57.48 58.8801 60.47 58.8801 64.14V73.03C58.7401 74.53 57.6701 75.56 56.3401 75.56Z" fill="#3CAB3E"/>
<path d="M54.4701 79.11H41.2701C40.9101 79.11 40.6201 78.82 40.6201 78.46V68.36C40.6201 68 40.9101 67.71 41.2701 67.71C41.6301 67.71 41.9201 68 41.9201 68.36V77.81H53.8201V68.36C53.8201 68 54.1101 67.71 54.4701 67.71C54.8301 67.71 55.1201 68 55.1201 68.36V78.46C55.1201 78.82 54.8301 79.11 54.4701 79.11Z" fill="#3CAB3E"/>
<path d="M47.8701 70.06C47.5101 70.06 47.2201 69.77 47.2201 69.41V61.66H45.7401C45.3801 61.66 45.0901 61.37 45.0901 61.01C45.0901 60.65 45.3801 60.36 45.7401 60.36H50.0101C50.3701 60.36 50.6601 60.65 50.6601 61.01C50.6601 61.37 50.3701 61.66 50.0101 61.66H48.5201V69.41C48.5201 69.77 48.2301 70.06 47.8701 70.06Z" fill="#3CAB3E"/>
<path d="M34.56 41.55C34.45 41.55 34.34 41.52 34.24 41.47C34 41.34 33.87 41.08 33.91 40.81L35.22 31.84H29.42C29.06 31.84 28.77 31.55 28.77 31.19V7.42002C28.77 7.06002 29.06 6.77002 29.42 6.77002H66.29C66.65 6.77002 66.94 7.06002 66.94 7.42002V31.2C66.94 31.56 66.65 31.85 66.29 31.85H46.36L34.98 41.4C34.86 41.5 34.71 41.55 34.56 41.55ZM30.09 30.54H35.99C36.18 30.54 36.36 30.62 36.48 30.77C36.6 30.91 36.66 31.1 36.63 31.29L35.46 39.31L45.71 30.7C45.83 30.6 45.97 30.55 46.13 30.55H65.66V8.07002H30.09V30.54Z" fill="#3CAB3E"/>
<path d="M52.2899 12.07H36.0399C35.6799 12.07 35.3899 11.78 35.3899 11.42C35.3899 11.06 35.6799 10.77 36.0399 10.77H52.2899C52.6499 10.77 52.9399 11.06 52.9399 11.42C52.9399 11.78 52.6499 12.07 52.2899 12.07Z" fill="#3CAB3E"/>
<path d="M59.71 12.07H55.62C55.26 12.07 54.97 11.78 54.97 11.42C54.97 11.06 55.26 10.77 55.62 10.77H59.71C60.07 10.77 60.36 11.06 60.36 11.42C60.36 11.78 60.07 12.07 59.71 12.07Z" fill="#3CAB3E"/>
<path d="M7.14006 6.64001C6.44006 6.64001 5.76006 6.53001 5.11006 6.30001C4.77006 6.18001 4.59006 5.81001 4.71006 5.47001C4.83006 5.13001 5.20006 4.95001 5.54006 5.07001C6.05006 5.25001 6.59006 5.34001 7.14006 5.34001C8.73006 5.34001 10.1901 4.61001 11.1401 3.34001C11.2501 3.20001 11.4001 3.11001 11.5801 3.09001C11.7601 3.07001 11.9301 3.12001 12.0701 3.23001C12.9801 3.95001 14.0601 4.33001 15.2101 4.33001C15.5801 4.33001 15.9301 4.29001 16.2601 4.22001C16.6001 4.14001 16.9601 4.37001 17.0301 4.72001C17.1101 5.07001 16.8801 5.42001 16.5301 5.49001C16.1101 5.58001 15.6701 5.63001 15.2101 5.63001C14.0001 5.63001 12.8001 5.27001 11.7801 4.61001C10.5801 5.91001 8.93006 6.64001 7.14006 6.64001Z" fill="#3CAB3E"/>
<path d="M30.9 70.68H10.18C9.82003 70.68 9.53003 70.39 9.53003 70.03V37.57C9.53003 37.21 9.82003 36.92 10.18 36.92C10.54 36.92 10.83 37.21 10.83 37.57V69.38H30.9C31.26 69.38 31.55 69.67 31.55 70.03C31.55 70.39 31.26 70.68 30.9 70.68Z" fill="#3CAB3E"/>
<path d="M59.7101 15.79H43.4601C43.1001 15.79 42.8101 15.5 42.8101 15.14C42.8101 14.78 43.1001 14.49 43.4601 14.49H59.7101C60.0701 14.49 60.3601 14.78 60.3601 15.14C60.3601 15.5 60.0701 15.79 59.7101 15.79Z" fill="#3CAB3E"/>
<path d="M40.1299 15.79H36.0399C35.6799 15.79 35.3899 15.5 35.3899 15.14C35.3899 14.78 35.6799 14.49 36.0399 14.49H40.1299C40.4899 14.49 40.7799 14.78 40.7799 15.14C40.7799 15.5 40.4899 15.79 40.1299 15.79Z" fill="#3CAB3E"/>
<path d="M52.2899 19.52H36.0399C35.6799 19.52 35.3899 19.23 35.3899 18.87C35.3899 18.51 35.6799 18.22 36.0399 18.22H52.2899C52.6499 18.22 52.9399 18.51 52.9399 18.87C52.9399 19.23 52.6499 19.52 52.2899 19.52Z" fill="#3CAB3E"/>
<path d="M59.71 19.52H55.62C55.26 19.52 54.97 19.23 54.97 18.87C54.97 18.51 55.26 18.22 55.62 18.22H59.71C60.07 18.22 60.36 18.51 60.36 18.87C60.36 19.23 60.07 19.52 59.71 19.52Z" fill="#3CAB3E"/>
<path d="M59.7101 23.2399H43.4601C43.1001 23.2399 42.8101 22.9499 42.8101 22.5899C42.8101 22.2299 43.1001 21.9399 43.4601 21.9399H59.7101C60.0701 21.9399 60.3601 22.2299 60.3601 22.5899C60.3601 22.9499 60.0701 23.2399 59.7101 23.2399Z" fill="#3CAB3E"/>
<path d="M40.1299 23.2399H36.0399C35.6799 23.2399 35.3899 22.9499 35.3899 22.5899C35.3899 22.2299 35.6799 21.9399 36.0399 21.9399H40.1299C40.4899 21.9399 40.7799 22.2299 40.7799 22.5899C40.7799 22.9499 40.4899 23.2399 40.1299 23.2399Z" fill="#3CAB3E"/>
<path d="M52.2899 26.97H36.0399C35.6799 26.97 35.3899 26.68 35.3899 26.32C35.3899 25.96 35.6799 25.67 36.0399 25.67H52.2899C52.6499 25.67 52.9399 25.96 52.9399 26.32C52.9399 26.68 52.6499 26.97 52.2899 26.97Z" fill="#3CAB3E"/>
<path d="M59.71 26.97H55.62C55.26 26.97 54.97 26.68 54.97 26.32C54.97 25.96 55.26 25.67 55.62 25.67H59.71C60.07 25.67 60.36 25.96 60.36 26.32C60.36 26.68 60.07 26.97 59.71 26.97Z" fill="#3CAB3E"/>
</g>
<defs>
<clipPath id="clip0_881_95">
<rect width="66.96" height="79.11" fill="white"/>
</clipPath>
</defs>
</svg>
