<svg width="80" height="70" viewBox="0 0 80 70" fill="none" xmlns="http://www.w3.org/2000/svg">
<g clip-path="url(#clip0_881_31)">
<path d="M43.03 51.93C43.28 51.21 43.66 50.3 45.42 50.25C47.83 50.21 55.4 52.18 57.9 53.19C59.09 53.67 59.87 54.21 60.13 54.91C60.64 56.24 56.96 64.93 56.35 67.2C56.1 68.18 55.95 68.7 55.05 68.26C51.61 66.56 48.25 61.62 44.46 59.35C43.27 58.64 42.07 58.15 41.75 57.24C41.7 57.11 41.68 56.96 41.68 56.78C41.67 55.52 42.67 53 43.03 51.93ZM53.05 56.78C52.6 57.35 52.7 58.18 53.27 58.62C53.84 59.08 54.67 58.98 55.11 58.41C55.57 57.84 55.48 57 54.91 56.55C54.33 56.11 53.51 56.21 53.05 56.78Z" stroke="#3CAB3E" stroke-width="1.3" stroke-miterlimit="10" stroke-linecap="round" stroke-linejoin="round"/>
<path d="M26.0399 56.78C25.5899 56.21 24.7599 56.12 24.1899 56.56C23.6199 57.01 23.5299 57.85 23.9799 58.42C24.4399 58.99 25.2599 59.08 25.8299 58.63C26.4099 58.17 26.4899 57.34 26.0399 56.78ZM22.7599 67.2C22.1699 64.92 18.4699 56.24 18.9699 54.91C19.2399 54.22 20.0199 53.67 21.2099 53.19C23.7099 52.18 31.2799 50.21 33.6899 50.25C35.4599 50.3 35.8299 51.21 36.0799 51.93C36.4299 52.99 37.4299 55.52 37.4299 56.79C37.4299 56.97 37.4099 57.12 37.3699 57.24C37.0599 58.15 35.8399 58.64 34.6599 59.35C30.8599 61.62 27.4999 66.56 24.0599 68.26C23.1599 68.7 23.0199 68.19 22.7599 67.2Z" stroke="#3CAB3E" stroke-width="1.3" stroke-miterlimit="10" stroke-linecap="round" stroke-linejoin="round"/>
<path d="M49.6499 38.8801C51.2899 36.4301 57.2799 31.2001 62.0899 29.3201C64.1199 28.5301 65.9399 28.3301 67.1399 29.2001C67.5999 29.5301 67.8899 29.8901 68.0499 30.2801H68.0599C68.4199 26.7901 70.7899 20.8601 72.9699 17.9901C74.0099 16.5901 75.9699 14.8401 77.6599 16.3101C80.3799 18.6601 75.5599 36.1701 72.4499 39.7701C67.1399 45.9501 62.2199 43.3501 57.8999 53.1801C55.3999 52.1701 47.8299 50.2001 45.4199 50.2401C46.2599 47.1301 47.8399 41.5801 49.6499 38.8801Z" stroke="#3CAB3E" stroke-width="1.3" stroke-miterlimit="10" stroke-linecap="round" stroke-linejoin="round"/>
<path d="M21.21 53.19C16.89 43.36 11.98 45.96 6.64996 39.78C3.54996 36.18 -1.27004 18.67 1.44996 16.32C3.14996 14.84 5.09996 16.6 6.13996 18C8.31996 20.87 10.68 26.79 11.06 30.28C11.21 29.9 11.5 29.54 11.96 29.21C13.7 27.95 16.76 28.94 19.88 30.74C23.96 33.12 28.12 36.9 29.45 38.88C31.27 41.58 32.84 47.13 33.69 50.25C31.27 50.21 23.71 52.19 21.21 53.19Z" stroke="#3CAB3E" stroke-width="1.3" stroke-miterlimit="10" stroke-linecap="round" stroke-linejoin="round"/>
<path d="M59.3499 17.15V22.93H53.5699C53.5699 19.74 56.1699 17.15 59.3499 17.15Z" stroke="#3CAB3E" stroke-width="1.3" stroke-miterlimit="10" stroke-linecap="round" stroke-linejoin="round"/>
<path d="M59.3499 0.650024V6.43002C56.1699 6.43002 53.5699 3.84002 53.5699 0.650024H59.3499V0.650024Z" stroke="#3CAB3E" stroke-width="1.3" stroke-miterlimit="10" stroke-linecap="round" stroke-linejoin="round"/>
<path d="M39.9299 14.19V12.26C40.2299 12.35 40.4499 12.46 40.5699 12.63C40.6999 12.79 40.7699 12.98 40.7699 13.2C40.7699 13.45 40.6899 13.66 40.5399 13.83C40.3799 14.01 40.1899 14.13 39.9299 14.19Z" stroke="#3CAB3E" stroke-width="1.3" stroke-miterlimit="10" stroke-linecap="round" stroke-linejoin="round"/>
<path d="M39.22 8.94006V10.6501C39 10.5601 38.85 10.4501 38.75 10.2901C38.64 10.1401 38.59 9.98006 38.59 9.81006C38.59 9.61006 38.65 9.44006 38.76 9.28006C38.88 9.12006 39.03 9.01006 39.22 8.94006Z" stroke="#3CAB3E" stroke-width="1.3" stroke-miterlimit="10" stroke-linecap="round" stroke-linejoin="round"/>
<path d="M38.74 13.6901C38.6 13.5001 38.5 13.2801 38.44 13.0201L37.16 13.1701C37.26 13.8101 37.48 14.3101 37.83 14.6601C38.19 15.0101 38.65 15.2201 39.22 15.2901V16.2001H39.93V15.2801C40.58 15.1701 41.07 14.9201 41.44 14.5201C41.8 14.1101 41.98 13.6001 41.98 13.0201C41.98 12.4901 41.83 12.0501 41.55 11.7101C41.27 11.3701 40.73 11.0901 39.93 10.8901V8.97005C40.25 9.11005 40.45 9.36005 40.52 9.75005L41.77 9.59005C41.68 9.09005 41.5 8.69005 41.19 8.41005C40.88 8.12005 40.46 7.93005 39.93 7.87005V7.38005H39.22V7.87005C38.66 7.92005 38.21 8.13005 37.87 8.50005C37.53 8.86005 37.35 9.31005 37.35 9.85005C37.35 10.3901 37.52 10.8401 37.81 11.2101C38.1 11.5901 38.58 11.8701 39.22 12.0501V14.1101C39.05 14.0201 38.89 13.8901 38.74 13.6901ZM39.57 5.18005C43.22 5.18005 46.19 8.14005 46.19 11.7901C46.19 15.4501 43.22 18.4101 39.57 18.4101C35.92 18.4101 32.96 15.4501 32.96 11.7901C32.96 8.14005 35.92 5.18005 39.57 5.18005Z" stroke="#3CAB3E" stroke-width="1.3" stroke-miterlimit="10" stroke-linecap="round" stroke-linejoin="round"/>
<path d="M19.7899 0.650024H25.5699C25.5699 3.84002 22.9799 6.43002 19.7899 6.43002V0.650024Z" stroke="#3CAB3E" stroke-width="1.3" stroke-miterlimit="10" stroke-linecap="round" stroke-linejoin="round"/>
<path d="M39.5699 18.41C43.2199 18.41 46.1899 15.45 46.1899 11.79C46.1899 8.14002 43.2199 5.18002 39.5699 5.18002C35.9199 5.18002 32.9599 8.14002 32.9599 11.79C32.9599 15.45 35.9199 18.41 39.5699 18.41ZM19.7899 6.43002C22.9799 6.43002 25.5699 3.84002 25.5699 0.650024H53.5699C53.5699 3.84002 56.1699 6.43002 59.3499 6.43002V17.15C56.1699 17.15 53.5699 19.75 53.5699 22.93H25.5699C25.5699 19.75 22.9799 17.15 19.7899 17.15V6.43002Z" stroke="#3CAB3E" stroke-width="1.3" stroke-miterlimit="10" stroke-linecap="round" stroke-linejoin="round"/>
<path d="M19.7899 17.15C22.9799 17.15 25.5699 19.75 25.5699 22.93H19.8799H19.7899V17.15Z" stroke="#3CAB3E" stroke-width="1.3" stroke-miterlimit="10" stroke-linecap="round" stroke-linejoin="round"/>
<path d="M45.4199 50.2501C46.2599 47.1201 47.8399 41.5801 49.6499 38.8801C51.2899 36.4301 57.2799 31.2001 62.0899 29.3201C64.1199 28.5301 65.9399 28.3301 67.1399 29.2001C67.5999 29.5301 67.8899 29.8901 68.0499 30.2801C69.3499 33.4601 61.0299 37.9801 59.3799 38.9501" stroke="#3CAB3E" stroke-width="1.3" stroke-miterlimit="2.6131" stroke-linecap="round" stroke-linejoin="round"/>
<path d="M57.8999 53.19C62.2199 43.36 67.1399 45.96 72.4499 39.78C75.5699 36.18 80.3899 18.67 77.6599 16.32C75.9599 14.84 73.9999 16.6 72.9599 18C70.7799 20.87 68.4099 26.8 68.0499 30.29" stroke="#3CAB3E" stroke-width="1.3" stroke-miterlimit="2.6131" stroke-linecap="round" stroke-linejoin="round"/>
<path d="M57.8999 53.19C59.0899 53.67 59.8699 54.21 60.1299 54.91C60.6399 56.24 56.9599 64.93 56.3499 67.2C56.0999 68.18 55.9499 68.7 55.0499 68.26C51.6099 66.56 48.2499 61.62 44.4599 59.35C43.2699 58.64 42.0699 58.15 41.7499 57.24C41.6999 57.11 41.6799 56.96 41.6799 56.78C41.6799 55.51 42.6799 52.99 43.0399 51.93C43.2899 51.21 43.6699 50.3 45.4299 50.25C47.8299 50.21 55.3999 52.19 57.8999 53.19Z" stroke="#3CAB3E" stroke-width="1.3" stroke-miterlimit="2.6131" stroke-linecap="round" stroke-linejoin="round"/>
<path d="M53.0499 56.78C53.5099 56.21 54.3299 56.12 54.9099 56.56C55.4799 57.01 55.5699 57.85 55.1099 58.42C54.6599 58.99 53.8299 59.08 53.2699 58.63C52.6999 58.17 52.5999 57.34 53.0499 56.78Z" stroke="#3CAB3E" stroke-width="1.3" stroke-miterlimit="2.6131" stroke-linecap="round" stroke-linejoin="round"/>
<path d="M11.07 30.29C9.78999 33.48 18.08 37.99 19.73 38.96" stroke="#3CAB3E" stroke-width="1.3" stroke-miterlimit="2.6131" stroke-linecap="round" stroke-linejoin="round"/>
<path d="M33.6899 50.2501C32.8399 47.1201 31.2699 41.5801 29.4499 38.8801C28.1199 36.9001 23.9599 33.1101 19.8799 30.7401C16.7699 28.9401 13.6999 27.9501 11.9599 29.2101C11.4999 29.5401 11.2099 29.9001 11.0599 30.2801" stroke="#3CAB3E" stroke-width="1.3" stroke-miterlimit="2.6131" stroke-linecap="round" stroke-linejoin="round"/>
<path d="M21.21 53.19C16.89 43.36 11.98 45.96 6.64996 39.78C3.54996 36.18 -1.27004 18.67 1.44996 16.32C3.14996 14.84 5.09996 16.6 6.13996 18C8.31996 20.87 10.68 26.79 11.06 30.28V30.29" stroke="#3CAB3E" stroke-width="1.3" stroke-miterlimit="2.6131" stroke-linecap="round" stroke-linejoin="round"/>
<path d="M21.21 53.19C20.02 53.67 19.25 54.21 18.97 54.91C18.47 56.24 22.16 64.93 22.76 67.2C23.02 68.18 23.16 68.7 24.05 68.26C27.5 66.56 30.85 61.62 34.65 59.35C35.83 58.64 37.05 58.15 37.36 57.24C37.4 57.12 37.42 56.97 37.42 56.79C37.42 55.52 36.42 52.99 36.07 51.93C35.82 51.21 35.44 50.3 33.68 50.25C31.27 50.21 23.71 52.19 21.21 53.19Z" stroke="#3CAB3E" stroke-width="1.3" stroke-miterlimit="2.6131" stroke-linecap="round" stroke-linejoin="round"/>
<path d="M26.04 56.78C25.59 56.21 24.76 56.12 24.19 56.56C23.62 57.01 23.53 57.85 23.98 58.42C24.44 58.99 25.26 59.08 25.83 58.63C26.41 58.17 26.49 57.34 26.04 56.78Z" stroke="#3CAB3E" stroke-width="1.3" stroke-miterlimit="2.6131" stroke-linecap="round" stroke-linejoin="round"/>
<path d="M19.7899 17.1501V6.43005" stroke="#3CAB3E" stroke-width="1.3" stroke-miterlimit="10" stroke-linecap="round" stroke-linejoin="round"/>
<path d="M53.5699 22.9301H25.5699" stroke="#3CAB3E" stroke-width="1.3" stroke-miterlimit="10" stroke-linecap="round" stroke-linejoin="round"/>
<path d="M59.35 6.43005V17.1501" stroke="#3CAB3E" stroke-width="1.3" stroke-miterlimit="10" stroke-linecap="round" stroke-linejoin="round"/>
<path d="M25.5699 0.650024H53.5699" stroke="#3CAB3E" stroke-width="1.3" stroke-miterlimit="10" stroke-linecap="round" stroke-linejoin="round"/>
<path d="M53.5699 0.650024H59.3499V6.43002C56.1699 6.43002 53.5699 3.84002 53.5699 0.650024Z" stroke="#3CAB3E" stroke-width="1.3" stroke-miterlimit="10" stroke-linecap="round" stroke-linejoin="round"/>
<path d="M25.5699 0.650024H19.7899V6.43002C22.9899 6.43002 25.5699 3.84002 25.5699 0.650024Z" stroke="#3CAB3E" stroke-width="1.3" stroke-miterlimit="10" stroke-linecap="round" stroke-linejoin="round"/>
<path d="M25.5699 22.93H19.8799H19.7899V17.15C22.9899 17.15 25.5699 19.74 25.5699 22.93Z" stroke="#3CAB3E" stroke-width="1.3" stroke-miterlimit="10" stroke-linecap="round" stroke-linejoin="round"/>
<path d="M53.5699 22.93H59.3499V17.15C56.1699 17.15 53.5699 19.74 53.5699 22.93Z" stroke="#3CAB3E" stroke-width="1.3" stroke-miterlimit="10" stroke-linecap="round" stroke-linejoin="round"/>
<path d="M39.57 5.18005C43.22 5.18005 46.19 8.14005 46.19 11.7901C46.19 15.4501 43.22 18.4101 39.57 18.4101C35.92 18.4101 32.96 15.4501 32.96 11.7901C32.96 8.14005 35.92 5.18005 39.57 5.18005Z" stroke="#3CAB3E" stroke-width="1.3" stroke-miterlimit="10" stroke-linecap="round" stroke-linejoin="round"/>
</g>
<defs>
<clipPath id="clip0_881_31">
<rect width="79.11" height="69.07" fill="white"/>
</clipPath>
</defs>
</svg>
