<svg width="64" height="80" viewBox="0 0 64 80" fill="none" xmlns="http://www.w3.org/2000/svg">
<g clip-path="url(#clip0_881_142)">
<path d="M48.22 36.9299H15.37C15.01 36.9299 14.72 36.6399 14.72 36.2799V24.1999C14.72 23.9299 14.88 23.6899 15.13 23.5999L26.42 19.1599C26.66 19.0699 26.92 19.1199 27.11 19.2999L31.63 23.6399L36.5 19.2799C36.68 19.1199 36.94 19.0699 37.17 19.1599L48.47 23.5999C48.72 23.6999 48.88 23.9399 48.88 24.1999V36.2799C48.87 36.6399 48.58 36.9299 48.22 36.9299ZM16.02 35.6299H47.58V24.6399L37.07 20.5099L32.04 24.9999C31.79 25.2299 31.4 25.2199 31.16 24.9799L26.51 20.5099L16.02 24.6299V35.6299Z" fill="#3CAB3E"/>
<path d="M42.69 36.91H20.9C20.54 36.91 20.25 36.62 20.25 36.26V28.68C20.25 28.32 20.54 28.03 20.9 28.03C21.26 28.03 21.55 28.32 21.55 28.68V35.61H42.04V28.68C42.04 28.32 42.33 28.03 42.69 28.03C43.05 28.03 43.34 28.32 43.34 28.68V36.26C43.34 36.61 43.05 36.91 42.69 36.91Z" fill="#3CAB3E"/>
<path d="M37.23 26.2101H26.36C26 26.2101 25.71 25.9201 25.71 25.5601V19.7601C25.71 19.4001 26 19.1101 26.36 19.1101C26.72 19.1101 27.01 19.4001 27.01 19.7601V24.9101H36.58V19.7601C36.58 19.4001 36.87 19.1101 37.23 19.1101C37.59 19.1101 37.88 19.4001 37.88 19.7601V25.5601C37.88 25.9201 37.59 26.2101 37.23 26.2101Z" fill="#3CAB3E"/>
<path d="M33.43 29.9899H30.16C29.8 29.9899 29.51 29.6999 29.51 29.3399V25.5599C29.51 25.1999 29.8 24.9099 30.16 24.9099H33.43C33.79 24.9099 34.08 25.1999 34.08 25.5599V29.3399C34.08 29.6999 33.79 29.9899 33.43 29.9899ZM30.81 28.6899H32.78V26.2099H30.81V28.6899Z" fill="#3CAB3E"/>
<path d="M34.7601 36.9299H28.4801C28.2801 36.9299 28.0901 36.8399 27.9701 36.6799C27.8501 36.5199 27.8001 36.3199 27.8501 36.1299L29.5301 29.1899C29.6001 28.8999 29.8601 28.6899 30.1601 28.6899H33.4301C33.7401 28.6899 34.0101 28.9099 34.0701 29.2199L35.4001 36.1599C35.4401 36.3499 35.3901 36.5499 35.2601 36.6999C35.1401 36.8399 34.9601 36.9299 34.7601 36.9299ZM29.3101 35.6299H33.9701L32.8901 29.9899H30.6701L29.3101 35.6299Z" fill="#3CAB3E"/>
<path d="M31.94 17.58C27.09 17.58 23.15 13.64 23.15 8.79C23.15 3.94 27.1 0 31.94 0C36.79 0 40.74 3.94 40.74 8.79C40.74 13.64 36.79 17.58 31.94 17.58ZM31.94 1.3C27.81 1.3 24.45 4.66 24.45 8.79C24.45 12.92 27.81 16.28 31.94 16.28C36.08 16.28 39.44 12.92 39.44 8.79C39.44 4.66 36.08 1.3 31.94 1.3Z" fill="#3CAB3E"/>
<path d="M38.12 7.57998C35.93 7.57998 33.89 6.93998 32.38 5.76998C32.1 5.54998 32.04 5.13998 32.26 4.85998C32.48 4.57998 32.89 4.51998 33.17 4.73998C34.8 5.99998 37.37 6.54998 39.72 6.13998C40.08 6.07998 40.41 6.31998 40.47 6.66998C40.53 7.01998 40.29 7.35998 39.94 7.41998C39.35 7.51998 38.73 7.57998 38.12 7.57998Z" fill="#3CAB3E"/>
<path d="M27.65 7.41993C26.35 7.41993 25.12 7.19993 24 6.76993C23.67 6.63993 23.5 6.25993 23.63 5.92993C23.76 5.58993 24.13 5.42993 24.47 5.55993C25.44 5.93993 26.51 6.12993 27.65 6.12993C31.3 6.12993 34.27 4.08993 34.27 1.57993C34.27 1.21993 34.56 0.929932 34.92 0.929932C35.28 0.929932 35.57 1.21993 35.57 1.57993C35.57 4.79993 32.02 7.41993 27.65 7.41993Z" fill="#3CAB3E"/>
<path d="M62.94 79.1101C62.58 79.1101 62.29 78.8201 62.29 78.4601V75.4201C62.29 73.0501 60.36 71.1201 57.98 71.1201H50.82C48.44 71.1201 46.51 73.0501 46.51 75.4201V78.4601C46.51 78.8201 46.22 79.1101 45.86 79.1101C45.5 79.1101 45.21 78.8201 45.21 78.4601V75.4201C45.21 72.3301 47.73 69.8201 50.82 69.8201H57.98C61.07 69.8201 63.59 72.3301 63.59 75.4201V78.4601C63.59 78.8201 63.3 79.1101 62.94 79.1101ZM39.46 79.1101C39.1 79.1101 38.81 78.8201 38.81 78.4601V75.4201C38.81 73.0501 36.88 71.1201 34.5 71.1201H27.34C24.96 71.1201 23.03 73.0501 23.03 75.4201V78.4601C23.03 78.8201 22.74 79.1101 22.38 79.1101C22.02 79.1101 21.73 78.8201 21.73 78.4601V75.4201C21.73 72.3301 24.25 69.8201 27.34 69.8201H34.5C37.59 69.8201 40.11 72.3301 40.11 75.4201V78.4601C40.11 78.8201 39.82 79.1101 39.46 79.1101ZM17.73 79.1101C17.37 79.1101 17.08 78.8201 17.08 78.4601V75.4201C17.08 73.0501 15.15 71.1201 12.77 71.1201H5.61C3.23 71.1201 1.3 73.0501 1.3 75.4201V78.4601C1.3 78.8201 1.01 79.1101 0.65 79.1101C0.29 79.1101 0 78.8201 0 78.4601V75.4201C0 72.3301 2.52 69.8201 5.61 69.8201H12.77C15.86 69.8201 18.38 72.3301 18.38 75.4201V78.4601C18.38 78.8201 18.09 79.1101 17.73 79.1101ZM54.27 68.9401C51.34 68.9401 48.96 66.5601 48.96 63.6301C48.96 60.7101 51.34 58.3401 54.27 58.3401C57.19 58.3401 59.57 60.7201 59.57 63.6301C59.58 66.5501 57.2 68.9401 54.27 68.9401ZM50.28 63.9601C50.45 66.0101 52.18 67.6301 54.27 67.6301C56.48 67.6301 58.27 65.8301 58.27 63.6201C58.27 63.4701 58.26 63.3201 58.25 63.1701C57.12 63.2701 55.94 62.9901 54.98 62.3901C53.78 63.6501 51.98 64.2501 50.28 63.9601ZM50.39 62.6601C50.64 62.7101 50.89 62.7301 51.15 62.7301C52.42 62.7301 53.59 62.1401 54.36 61.1201C54.47 60.9801 54.63 60.8901 54.8 60.8701C54.97 60.8501 55.15 60.9001 55.29 61.0101C56.01 61.6001 56.97 61.9001 57.89 61.8901C57.24 60.5501 55.87 59.6301 54.28 59.6301C52.4 59.6301 50.82 60.9201 50.39 62.6601ZM30.8 68.9401C27.87 68.9401 25.49 66.5601 25.49 63.6301C25.49 60.7101 27.87 58.3401 30.8 58.3401C33.73 58.3401 36.11 60.7201 36.11 63.6301C36.1 66.5501 33.72 68.9401 30.8 68.9401ZM26.8 63.9601C26.97 66.0101 28.7 67.6301 30.79 67.6301C33 67.6301 34.8 65.8301 34.8 63.6201C34.8 63.4701 34.79 63.3201 34.78 63.1701C33.67 63.2601 32.47 62.9901 31.51 62.3901C30.31 63.6401 28.48 64.2401 26.8 63.9601ZM26.91 62.6601C27.16 62.7101 27.41 62.7301 27.68 62.7301C28.93 62.7301 30.13 62.1301 30.88 61.1301C30.99 60.9901 31.14 60.9001 31.32 60.8701C31.5 60.8501 31.67 60.9001 31.81 61.0101C32.53 61.6001 33.49 61.9101 34.41 61.8901C33.76 60.5501 32.39 59.6301 30.8 59.6301C28.92 59.6301 27.34 60.9201 26.91 62.6601ZM9.06 68.9401C6.13 68.9401 3.75 66.5601 3.75 63.6301C3.75 60.7101 6.13 58.3401 9.06 58.3401C11.99 58.3401 14.37 60.7201 14.37 63.6301C14.37 66.5501 11.99 68.9401 9.06 68.9401ZM5.07 63.9601C5.24 66.0101 6.97 67.6301 9.06 67.6301C11.27 67.6301 13.07 65.8301 13.07 63.6201C13.07 63.4701 13.06 63.3201 13.04 63.1701C11.93 63.2701 10.74 63.0001 9.77 62.3901C8.78 63.4401 7.41 64.0301 5.94 64.0301C5.64 64.0401 5.35 64.0101 5.07 63.9601ZM5.17 62.6601C5.42 62.7101 5.67 62.7301 5.94 62.7301C7.21 62.7301 8.38 62.1401 9.14 61.1301C9.25 60.9901 9.4 60.9001 9.58 60.8701C9.76 60.8501 9.93 60.9001 10.07 61.0101C10.81 61.6101 11.74 61.9101 12.67 61.8901C12.02 60.5501 10.65 59.6301 9.06 59.6301C7.19 59.6301 5.61 60.9201 5.17 62.6601Z" fill="#3CAB3E"/>
<path d="M54.56 57.09C54.2 57.09 53.91 56.7999 53.91 56.4399V47.5L9.68001 47.0099V56.2299C9.68001 56.5899 9.39 56.88 9.03 56.88C8.67 56.88 8.38 56.5899 8.38 56.2299V46.3499C8.38 46.1799 8.45 46.0099 8.57 45.8899C8.69 45.7699 8.87 45.72 9.03 45.7L54.56 46.2099C54.92 46.2099 55.2 46.5 55.2 46.86V56.4399C55.21 56.7999 54.92 57.09 54.56 57.09Z" fill="#3CAB3E"/>
<path d="M31.62 52.0399C31.26 52.0399 30.97 51.7499 30.97 51.3899V36.2799C30.97 35.9199 31.26 35.6299 31.62 35.6299C31.98 35.6299 32.27 35.9199 32.27 36.2799V51.3899C32.27 51.7499 31.98 52.0399 31.62 52.0399Z" fill="#3CAB3E"/>
</g>
<defs>
<clipPath id="clip0_881_142">
<rect width="63.59" height="79.11" fill="white"/>
</clipPath>
</defs>
</svg>
