<?xml version="1.0" encoding="utf-8"?><svg width="17" height="14" fill="none" xmlns="http://www.w3.org/2000/svg" viewBox="0 0 17 14"><path d="M15.406.278H1.594C.714.278 0 .993 0 1.872v9.563c0 .878.715 1.593 1.594 1.593h13.812c.879 0 1.594-.715 1.594-1.593V1.872c0-.879-.715-1.594-1.594-1.594zm0 1.063c.072 0 .141.015.204.04L8.5 7.545 1.39 1.382a.529.529 0 01.204-.041h13.812zm0 10.625H1.594a.532.532 0 01-.532-.531v-8.93l7.09 6.144a.53.53 0 00.696 0l7.09-6.145v8.93a.532.532 0 01-.532.532z" fill="#48A216"/></svg>